<svg xmlns="http://www.w3.org/2000/svg" width="160" height="31.702">
    <g data-name="그룹 6">
        <g data-name="그룹 2">
            <g data-name="그룹 1">
                <path data-name="패스 1" d="M13.342 8.167c-.16-1.109-1.078-3-3.963-3-1.98 0-3.255 1.254-3.255 2.556 0 1.15.715 1.99 2.353 2.284l3.192.607c4.539.843 6.892 3.756 6.892 7.155 0 3.742-3.119 7.541-8.8 7.541-6.591 0-9.426-4.275-9.762-7.634l4.881-1.175c.2 2.191 1.679 4.1 4.943 4.1 2.083 0 3.358-1.006 3.358-2.483 0-1.207-.98-2.083-2.549-2.4l-3.26-.607C3.326 14.34.88 11.656.88 8.122c0-4.5 3.963-7.665 8.539-7.665 5.942 0 8.2 3.562 8.7 6.353z"/>
                <path data-name="패스 2" d="M21.058 24.817V8.101h4.87v1.911a5.863 5.863 0 0 1 4.819-2.419 5.185 5.185 0 0 1 4.943 2.626 5.7 5.7 0 0 1 5.165-2.626c3.167 0 6.183 1.849 6.183 6.388v10.836l-4.933-.006v-9.69a2.531 2.531 0 0 0-2.66-2.812 2.723 2.723 0 0 0-2.791 2.86v9.643l-5.037.006v-9.7a2.534 2.534 0 0 0-2.69-2.812 2.718 2.718 0 0 0-2.76 2.882v9.627z"/>
                <path data-name="패스 3" d="M52.708 0a2.993 2.993 0 1 1-2.964 2.981A3 3 0 0 1 52.708 0m-2.519 8.095h5.12v16.72h-5.12z"/>
                <path data-name="사각형 1" d="M58.511.467h5.119v24.344h-5.119z"/>
                <path data-name="패스 4" d="M82.3 20.008c-.823 2.892-3.465 5.307-7.715 5.307a8.873 8.873 0 0 1-.363-17.729c5.171 0 8.363 3.2 8.363 8.578a10.153 10.153 0 0 1-.1 1.589h-11.62a3.609 3.609 0 0 0 3.793 3.224 3.223 3.223 0 0 0 3.357-2.18zm-4.658-5.551c-.068-1.284-.923-2.833-3.347-2.833a3.184 3.184 0 0 0-3.327 2.833z"/>
                <path data-name="패스 5" d="M88.569 24.485a3.47 3.47 0 0 0 3.581 2.781c2.56 0 4.14-1.237 4.14-4.274v-.767a5.228 5.228 0 0 1-4.471 1.88c-4.436 0-7.762-3.5-7.762-8.146a7.848 7.848 0 0 1 7.762-8.156c2.726 0 4.17 1.191 4.632 2.073V8.1h4.882v14.627c0 4.8-2.694 8.975-8.933 8.975-4.815 0-7.876-2.954-8.343-5.952zm7.758-8.525a3.582 3.582 0 1 0-7.161 0 3.474 3.474 0 0 0 3.586 3.71 3.439 3.439 0 0 0 3.575-3.71"/>
                <path data-name="패스 6" d="M116.36 22.669a4.743 4.743 0 0 1-4.5 2.6c-4.9 0-8.295-3.72-8.295-8.875 0-4.98 3.181-8.815 8.124-8.815 3 0 4.305 1.659 4.643 2.426V8.094h4.943v13.72a28.856 28.856 0 0 0 .135 2.989h-4.918a19.141 19.141 0 0 1-.129-1.983zm-3.841-1.789c2.058 0 3.809-1.622 3.809-4.446 0-2.9-1.709-4.408-3.809-4.408-2.171 0-3.818 1.506-3.818 4.408 0 2.757 1.71 4.446 3.818 4.446"/>
                <path data-name="패스 7" d="M130.882 8.102h3.25v4.477h-3.25v6.25c0 1.382.742 1.744 1.851 1.744a6.378 6.378 0 0 0 1.338-.168v4.248a6.123 6.123 0 0 1-2.66.466c-3.455 0-5.579-2.051-5.579-5.384V12.58h-2.944V8.1h.829a2.453 2.453 0 0 0 2.591-2.726V3.218h4.574z"/>
                <path data-name="패스 8" d="M151.724 20.008c-.812 2.892-3.461 5.307-7.7 5.307a8.873 8.873 0 0 1-.363-17.729c5.171 0 8.363 3.2 8.363 8.578a13.8 13.8 0 0 1-.093 1.589h-11.642a3.61 3.61 0 0 0 3.793 3.224 3.233 3.233 0 0 0 3.368-2.18zm-4.646-5.551c-.073-1.284-.933-2.833-3.358-2.833a3.213 3.213 0 0 0-3.337 2.833z"/>
            </g>
        </g>
        <path data-name="패스 9" d="M156.872 3.22a3.148 3.148 0 1 1-3.106 3.136 3.135 3.135 0 0 1 3.106-3.136m0 5.671a2.532 2.532 0 1 0-2.431-2.535 2.449 2.449 0 0 0 2.431 2.535m-.4-.837h-.631V4.628h1.181a1.1 1.1 0 0 1 1.159 1.074 1.038 1.038 0 0 1-.757 1l.775 1.352h-.75l-.711-1.278h-.266zm.455-1.849c.383 0 .6-.183.6-.5 0-.334-.216-.521-.6-.521h-.455V6.2z"/>
    </g>
</svg>
