<svg width="54" height="12" viewBox="0 0 54 12" fill="none" xmlns="http://www.w3.org/2000/svg">
    <path fill-rule="evenodd" clip-rule="evenodd" d="M25.1767 0C28.4873 0 31.1712 2.68623 31.1712 5.99991C31.1712 9.31365 28.4873 12 25.1767 12C21.8661 12 19.1823 9.31365 19.1823 5.99991C19.1823 2.68623 21.8661 0 25.1767 0ZM4.86278 0L5.06244 0.0027135C6.04871 0.0285176 7.75743 0.244991 8.45687 0.933272C8.74639 1.21815 8.88903 1.57005 8.88903 2.02256C8.88903 2.72642 8.40143 3.25116 7.61797 3.25116C7.46538 3.25116 7.27835 3.21327 7.05936 3.1587L6.54205 3.02399L6.30893 2.9662C5.86818 2.8614 5.35457 2.76783 4.77763 2.76783L4.6938 2.76828L4.53089 2.77204C4.47771 2.77397 4.42569 2.77662 4.37498 2.78006L4.22689 2.79286C3.6992 2.84918 3.34547 3.01228 3.34547 3.39708C3.34547 3.50044 3.37362 3.60019 3.45529 3.72049C3.48727 3.76764 3.52848 3.81435 3.57895 3.85978L3.63567 3.90733C3.72282 3.97991 3.83378 4.04452 3.96423 4.10388L4.08071 4.15353L4.20612 4.201C4.22773 4.20875 4.24969 4.21642 4.27199 4.22403L4.40966 4.26893L4.55475 4.31259L4.78495 4.3766L5.11216 4.46118L5.72691 4.61566L6.00148 4.68773L6.1867 4.73868L6.37296 4.79239L6.55964 4.84926C6.59076 4.85902 6.62187 4.86893 6.65296 4.879L6.83915 4.94131L7.02425 5.00773C8.37616 5.51077 9.59113 6.37572 9.59113 8.27964C9.59113 10.8102 7.3834 12 4.64139 12C4.51206 12 4.37894 11.9966 4.24312 11.9898L4.03752 11.977L3.82873 11.959C3.75869 11.9521 3.68825 11.9444 3.61756 11.9358L3.40486 11.9074C1.73484 11.664 0 10.9354 0 9.65379C0 8.91647 0.483251 8.28055 1.26671 8.28055C1.49361 8.28055 1.74906 8.36246 2.04701 8.47664L2.63222 8.70628C3.23396 8.93583 3.98269 9.17254 4.94694 9.17254C5.97616 9.17254 6.4627 8.9536 6.4627 8.49748C6.4627 8.27964 6.37755 8.15548 6.24131 8.02137C6.08684 7.87639 5.85893 7.75482 5.58109 7.64285L5.43812 7.5876L5.28748 7.53357L5.12982 7.48038L4.88161 7.40133L3.97909 7.12859L3.69429 7.03903L3.40691 6.9436L3.21499 6.87608L3.02356 6.80499C2.86442 6.74416 2.70647 6.67922 2.55142 6.60917L2.36684 6.52259C1.20805 5.95792 0.255517 5.07509 0.255517 3.43653C0.255517 1.30817 2.15477 0 4.86278 0ZM48.7424 0.000347136L49.0603 0.00527137L49.4388 0.0168594L49.7144 0.0294385L50.0011 0.0467068C50.7267 0.0963145 51.4983 0.19636 51.8734 0.395428C52.4577 0.705625 52.8108 1.26364 52.7429 1.9171C52.6561 2.75359 51.9749 3.1145 51.1527 3.05455L50.7698 3.0181L50.4664 2.99347L50.1823 2.97382L49.8556 2.95502L49.492 2.93876L49.2318 2.93017L48.9592 2.92394L48.6758 2.92059L48.4344 2.9206L48.2065 2.92557L47.9423 2.93616L47.7035 2.94963L47.5273 2.96186L47.2412 2.98586L47.0377 3.0061L46.8257 3.0301C46.7106 3.04399 46.6206 3.13409 46.6038 3.2466L46.601 3.28486V4.65509H50.3818C51.1219 4.65509 51.7678 5.25569 51.7751 5.99968C51.7681 6.71974 51.163 7.30544 50.4531 7.34248L50.3818 7.34434H46.601V8.71469C46.601 8.84444 46.6978 8.9539 46.8257 8.96933L47.0385 8.99343L47.341 9.02257L47.6195 9.04427L47.8694 9.05962L48.1501 9.07209L48.4669 9.07925L48.8187 9.07768L49.0969 9.07283L49.3635 9.06535L49.617 9.05576L49.9689 9.03846L50.282 9.0192L50.7698 8.98146L51.0727 8.95212C51.9303 8.8622 52.6533 9.21898 52.7429 10.0825C52.8108 10.7358 52.4577 11.294 51.8734 11.6041C51.5233 11.7899 50.8279 11.8895 50.1467 11.9423L49.8567 11.9621L49.5748 11.977L49.3072 11.9875L49.0603 11.9943L48.7424 11.9993L48.5746 12L48.2701 11.9985L47.9869 11.994L47.7233 11.9867L47.4778 11.9768L47.249 11.9644L47.0353 11.9496L46.8352 11.9327L46.647 11.9137L46.4694 11.8929L46.2192 11.8586L45.9841 11.8209L45.8332 11.7942C45.1327 11.664 44.6633 11.3632 44.3517 10.9724C43.8848 10.387 43.7706 9.60048 43.7603 8.88447L43.7595 8.77204V3.2274C43.7595 2.48236 43.8603 1.64334 44.3517 1.02713C44.6633 0.636296 45.1327 0.335503 45.8332 0.205265L45.9841 0.178574L46.2192 0.140915L46.4694 0.106574L46.647 0.085784L46.8352 0.0668574L47.1404 0.0423023L47.3615 0.0287153L47.5984 0.0175362L47.8527 0.00892027C47.8966 0.00770653 47.9413 0.00660607 47.9869 0.00562212L48.2701 0.00114256C48.319 0.000637633 48.3689 0.000255701 48.4196 0L48.7424 0.000347136ZM41.0733 0C41.6204 0 42.5606 0.502662 42.5606 1.66384C42.5606 4.19424 40.8585 9.3116 38.9086 11.3567C38.5045 11.7806 37.9884 12.0068 37.4652 11.9998C36.9421 12.0068 36.426 11.7806 36.0218 11.3567C34.072 9.3116 32.37 4.19424 32.37 1.66384C32.37 0.502662 33.281 0 33.8572 0C34.8544 0 35.1904 0.64711 35.3363 1.491L35.3608 1.6465C35.6928 3.91769 36.3724 6.05895 37.3129 8.21263L37.4428 8.50641H37.4876C38.4517 6.3513 39.1589 4.21509 39.5222 1.95542L39.5696 1.6465C39.7018 0.727925 40.0157 0 41.0733 0ZM14.8271 0L15.097 0.00232314L15.3584 0.0067737L15.7341 0.0169916L16.089 0.0308474L16.4221 0.0476517L16.8304 0.0734526L17.1955 0.101636L17.5872 0.137726L17.9025 0.171795L18.284 0.221102L18.3366 0.229267C19.291 0.394523 19.8591 1.07433 19.7731 1.91939C19.6901 2.73726 19.0322 3.19415 18.245 3.14251L17.5356 3.09481L16.6783 3.0492L16.1696 3.02717V10.6101C16.1696 11.63 15.372 12 14.6159 12C13.8988 12 13.1903 11.6521 13.1481 10.701L13.1461 10.6101V3.02711L12.4107 3.06309L11.1812 3.13564C10.3589 3.22359 9.6851 2.7647 9.59917 1.91958C9.51579 1.1 10.0888 0.421667 10.9593 0.244406L11.0766 0.224041L11.4904 0.172152L11.8137 0.138071L12.2122 0.101925L12.6791 0.0669241L12.9894 0.047808L13.3205 0.030953L13.6709 0.0170523L14.0393 0.00679924L14.2941 0.00233279L14.5558 1.12142e-06L14.8271 0ZM25.1767 3C23.5214 3 22.1795 4.34308 22.1795 5.99987C22.1795 7.65679 23.5214 9 25.1767 9C26.8321 9 28.1739 7.65679 28.1739 5.99987C28.1739 4.34308 26.8321 3 25.1767 3Z" fill="#1F1F1F"/>
</svg>
